<?xml version="1.0" standalone="no"?>
<!DOCTYPE svg PUBLIC "-//W3C//DTD SVG 20010904//EN"
 "http://www.w3.org/TR/2001/REC-SVG-20010904/DTD/svg10.dtd">
<svg version="1.0" xmlns="http://www.w3.org/2000/svg"
 width="180.000000pt" height="180.000000pt" viewBox="0 0 180.000000 180.000000"
 preserveAspectRatio="xMidYMid meet">

<g transform="translate(0.000000,180.000000) scale(0.100000,-0.100000)"
fill="#000000" stroke="none">
<path d="M345 1491 c-119 -19 -236 -65 -255 -100 -13 -26 -14 -945 0 -970 5
-10 22 -24 38 -30 26 -11 43 -8 128 19 126 39 224 47 329 27 101 -19 174 -47
256 -96 l64 -39 27 20 c57 40 196 97 278 114 111 22 211 14 331 -26 109 -36
123 -37 154 -5 l25 24 0 471 c0 305 -4 478 -10 491 -14 26 -73 54 -167 81 -62
18 -104 22 -208 22 -153 0 -248 -22 -360 -83 l-70 -37 -75 37 c-41 21 -109 48
-150 59 -83 23 -254 34 -335 21z m321 -136 c44 -14 103 -38 132 -55 l52 -30 0
-401 c0 -317 -3 -400 -12 -396 -157 66 -246 87 -372 87 -87 0 -220 -21 -256
-40 -20 -11 -20 -10 -20 399 l0 409 49 17 c155 51 288 55 427 10z m772 25 c34
-6 87 -20 117 -31 l55 -20 0 -403 0 -403 -57 14 c-32 8 -112 16 -178 19 -157
8 -232 -8 -403 -83 -10 -4 -12 77 -10 398 l3 404 87 43 c129 64 251 84 386 62z"/>
<path d="M415 1038 c-37 -101 -79 -211 -92 -246 l-23 -63 41 3 c42 3 42 4 64
63 l23 60 97 0 98 0 22 -60 c22 -59 23 -60 64 -63 l41 -3 -23 63 c-13 35 -55
145 -92 246 l-68 182 -42 0 -42 0 -68 -182z m148 -11 l35 -97 -74 0 -74 0 19
48 c10 26 26 71 36 100 9 29 19 52 20 50 2 -2 19 -47 38 -101z"/>
<path d="M1208 1210 c-25 -5 -71 -15 -102 -24 l-56 -17 0 -45 c0 -40 2 -45 18
-38 89 39 153 53 237 54 50 0 114 -6 143 -14 l53 -13 -3 41 -3 41 -65 11 c-76
14 -156 15 -222 4z"/>
<path d="M1165 995 c-108 -24 -115 -28 -115 -79 l0 -44 58 24 c116 47 244 53
370 18 20 -6 22 -3 22 34 l0 40 -63 11 c-83 14 -197 13 -272 -4z"/>
<path d="M1235 799 c-39 -4 -96 -15 -128 -25 l-57 -18 0 -44 c0 -38 2 -43 18
-37 135 59 306 71 415 30 14 -6 17 -1 17 33 l0 41 -52 10 c-80 15 -136 17
-213 10z"/>
</g>
</svg>
